<svg width="40" height="40" xmlns="http://www.w3.org/2000/svg">
  <!-- Белый фон -->
  <rect x="0" y="0" width="40" height="40" fill="#fff"/>

  <!-- Вертикальные линии -->
  <line x1="0" y1="28" x2="10" y2="28" stroke="#000" stroke-width="1.5"/>
  <line x1="30" y1="28" x2="40" y2="28" stroke="#000" stroke-width="1.5"/>

  <!-- Горизонтальные линии -->
  <line x1="1" y1="0" x2="1" y2="28" stroke="#000" stroke-width="1.5" stroke-linecap="round"/>
  <line x1="39.5" y1="23" x2="39.5" y2="33" stroke="#000" stroke-width="1.5" stroke-linecap="round"/>

  <circle cx="20" cy="28" r="10" stroke="#000" stroke-width="1.5" fill="none"/>
  <path d="M 17 28
	   A 3.5 3.5, 0, 0, 0, 17 35" stroke="#000" stroke-width="1.5" fill="none"/>
  <path d="M 17 28
	   A 3.5 3.5, 0, 0, 0, 17 21" stroke="#000" stroke-width="1.5" fill="none"/>
  <path d="M 23 28
	   A 3.5 3.5, 0, 0, 0, 23 35" stroke="#000" stroke-width="1.5" fill="none"/>
  <path d="M 23 28
	   A 3.5 3.5, 0, 0, 0, 23 21" stroke="#000" stroke-width="1.5" fill="none"/>

  <text x="23.5" y="9" transform="rotate(0, 23.5, 9)" font-family="Verdana" font-size="10" fill="black">
    Zin
  </text>
  <line x1="21.5" y1="15" x2="6.5" y2="15" stroke="#000" stroke-width="1.5" fill="none"/>
  <line x1="6.5" y1="15.7125" x2="6.5" y2="8" stroke="#000" stroke-width="1.5" fill="none"/>
  <line x1="6.5" y1="8" x2="3" y2="13" stroke="#000" stroke-width="1.5" fill="none"/>
  <line x1="6.5" y1="8" x2="10" y2="13" stroke="#000" stroke-width="1.5" fill="none"/>
</svg>
