<svg width="40" height="40" xmlns="http://www.w3.org/2000/svg">

  <line x1="1" y1="0" x2="1" y2="5" stroke="#000" stroke-width="1.5" stroke-linecap="round"/>
  <line x1="1" y1="40" x2="1" y2="35" stroke="#000" stroke-width="1.5" stroke-linecap="round"/>

  <line x1="39.5" y1="0" x2="39.5" y2="10" stroke="#000" stroke-width="1.5" stroke-linecap="round"/>
  <line x1="39.5" y1="30" x2="39.5" y2="40" stroke="#000" stroke-width="1.5" stroke-linecap="round"/>

  <line x1="0" y1="5" x2="6" y2="5" stroke="#000" stroke-width="1.5"/>
  <line x1="0" y1="35" x2="6" y2="35" stroke="#000" stroke-width="1.5"/>

  <line x1="40" y1="5" x2="34" y2="5" stroke="#000" stroke-width="1.5"/>
  <line x1="40" y1="35" x2="34" y2="35" stroke="#000" stroke-width="1.5"/>

  <line x1="34" y1="35" x2="34" y2="25" stroke="#000" stroke-width="1.5"/>
  <line x1="6" y1="35" x2="6" y2="25" stroke="#000" stroke-width="1.5"/>

  <line x1="34" y1="5" x2="34" y2="15" stroke="#000" stroke-width="1.5"/>
  <line x1="6" y1="5" x2="6" y2="15" stroke="#000" stroke-width="1.5"/>

  <line x1="34" y1="5" x2="40" y2="5" stroke="#000" stroke-width="1.5"/>
  <line x1="34" y1="35" x2="40" y2="35" stroke="#000" stroke-width="1.5"/>

  <line x1="13" y1="20" x2="9" y2="20" stroke="#000" stroke-width="1.5"/>
  <line x1="15" y1="20" x2="19" y2="20" stroke="#000" stroke-width="1.5"/>
  <line x1="21" y1="20" x2="25" y2="20" stroke="#000" stroke-width="1.5"/>
  <line x1="27" y1="20" x2="31" y2="20" stroke="#000" stroke-width="1.5"/>

  <!-- Вертикальные линии -->
  <!-- Эллипсы -->
  <path d="M 6 13
	   C 7 19, 12 19, 13 13" stroke="#000" stroke-width="1.5" fill="none"/>
  <path d="M 13 13
	   C 14 19, 19 19, 20 13" stroke="#000" stroke-width="1.5" fill="none"/>
  <path d="M 20 13
	   C 21 19, 26 19, 27 13" stroke="#000" stroke-width="1.5" fill="none"/>
  <path d="M 27 13
	   C 28 19, 33 19, 34 13" stroke="#000" stroke-width="1.5" fill="none"/>

  <path d="M 6 27
	   C 7 21, 12 21, 13 27" stroke="#000" stroke-width="1.5" fill="none"/>
  <path d="M 13 27
	   C 14 21, 19 21, 20 27" stroke="#000" stroke-width="1.5" fill="none"/>
  <path d="M 20 27
	   C 21 21, 26 21, 27 27" stroke="#000" stroke-width="1.5" fill="none"/>
  <path d="M 27 27
	   C 28 21, 33 21, 34 27" stroke="#000" stroke-width="1.5" fill="none"/>

</svg>
