<svg width="40" height="40" xmlns="http://www.w3.org/2000/svg">
  <!-- Белый фон -->
  <rect x="0" y="0" width="40" height="40" fill="#fff"/>

  <!-- Вертикальные линии -->
  <line x1="28" y1="0" x2="28" y2="10" stroke="#000" stroke-width="1.5"/>
  <line x1="28" y1="30" x2="28" y2="40" stroke="#000" stroke-width="1.5"/>

  <!-- Горизонтальные линии -->
  <line x1="0" y1="1" x2="28" y2="1" stroke="#000" stroke-width="1.5" stroke-linecap="round"/>
  <line x1="23" y1="39.5" x2="33" y2="39.5" stroke="#000" stroke-width="1.5" stroke-linecap="round"/>

  <circle cx="28" cy="20" r="10" stroke="#000" stroke-width="1.5" fill="none"/>
  <path d="M 28 17
	   A 3.5 3.5, 0, 1, 0, 35 17" stroke="#000" stroke-width="1.5" fill="none"/>
  <path d="M 28 19.5
	   A 3.5 3.5, 0, 0, 0, 21 19.5" stroke="#000" stroke-width="1.5" fill="none"/>
  <path d="M 28 22
	   A 3.5 3.5, 0, 1, 0, 35 22" stroke="#000" stroke-width="1.5" fill="none"/>
  <path d="M 28 24.5
	   A 3.5 3.5, 0, 0, 0, 21 24.5" stroke="#000" stroke-width="1.5" fill="none"/>

  <text x="9" y="23.5" transform="rotate(90, 9, 23.5)" font-family="Verdana" font-size="10" fill="black">
    Zin
  </text>
  <line x1="15" y1="21.5" x2="15" y2="6.5" stroke="#000" stroke-width="1.5" fill="none"/>
  <line x1="15.7125" y1="6.5" x2="8" y2="6.5" stroke="#000" stroke-width="1.5" fill="none"/>
  <line x1="8" y1="6.5" x2="13" y2="3" stroke="#000" stroke-width="1.5" fill="none"/>
  <line x1="8" y1="6.5" x2="13" y2="10" stroke="#000" stroke-width="1.5" fill="none"/>
</svg>
