<svg width="40" height="40" xmlns="http://www.w3.org/2000/svg">
  <!-- Белый фон -->
  <rect x="0" y="0" width="40" height="40" fill="#fff"/>

  <!-- Вертикальные линии -->
  <line x1="20" y1="0" x2="20" y2="10" stroke="#000" stroke-width="1.5"/>
  <line x1="20" y1="30" x2="20" y2="40" stroke="#000" stroke-width="1.5"/>

  <!-- Горизонтальные линии -->
  <line x1="0" y1="1" x2="20" y2="1" stroke="#000" stroke-width="1.5" stroke-linecap="round"/>
  <line x1="15" y1="39.5" x2="25" y2="39.5" stroke="#000" stroke-width="1.5" stroke-linecap="round"/>

  <circle cx="20" cy="20" r="10" stroke="#000" stroke-width="1.5" fill="none"/>
  <path d="M 20 17
	   A 3.5 3.5, 0, 1, 0, 27 17" stroke="#000" stroke-width="1.5" fill="none"/>
  <path d="M 20 19.5
	   A 3.5 3.5, 0, 0, 0, 13 19.5" stroke="#000" stroke-width="1.5" fill="none"/>
  <path d="M 20 22
	   A 3.5 3.5, 0, 1, 0, 27 22" stroke="#000" stroke-width="1.5" fill="none"/>
  <path d="M 20 24.5
	   A 3.5 3.5, 0, 0, 0, 13 24.5" stroke="#000" stroke-width="1.5" fill="none"/>


</svg>
