<svg width="40" height="40" xmlns="http://www.w3.org/2000/svg">

  <line x1="0" y1="1" x2="5" y2="1" stroke="#000" stroke-width="1.5" stroke-linecap="round"/>
  <line x1="40" y1="1" x2="35" y2="1" stroke="#000" stroke-width="1.5" stroke-linecap="round"/>

  <line x1="0" y1="39.5" x2="10" y2="39.5" stroke="#000" stroke-width="1.5" stroke-linecap="round"/>
  <line x1="30" y1="39.5" x2="40" y2="39.5" stroke="#000" stroke-width="1.5" stroke-linecap="round"/>

  <line x1="5" y1="0" x2="5" y2="6" stroke="#000" stroke-width="1.5"/>
  <line x1="35" y1="0" x2="35" y2="6" stroke="#000" stroke-width="1.5"/>

  <line x1="5" y1="40" x2="5" y2="34" stroke="#000" stroke-width="1.5"/>
  <line x1="35" y1="40" x2="35" y2="34" stroke="#000" stroke-width="1.5"/>

  <line x1="35" y1="34" x2="25" y2="34" stroke="#000" stroke-width="1.5"/>
  <line x1="35" y1="6" x2="25" y2="6" stroke="#000" stroke-width="1.5"/>

  <line x1="5" y1="34" x2="15" y2="34" stroke="#000" stroke-width="1.5"/>
  <line x1="5" y1="6" x2="15" y2="6" stroke="#000" stroke-width="1.5"/>

  <line x1="5" y1="34" x2="5" y2="40" stroke="#000" stroke-width="1.5"/>
  <line x1="35" y1="34" x2="35" y2="40" stroke="#000" stroke-width="1.5"/>

  <line x1="20" y1="13" x2="20" y2="9" stroke="#000" stroke-width="1.5"/>
  <line x1="20" y1="15" x2="20" y2="19" stroke="#000" stroke-width="1.5"/>
  <line x1="20" y1="21" x2="20" y2="25" stroke="#000" stroke-width="1.5"/>
  <line x1="20" y1="27" x2="20" y2="31" stroke="#000" stroke-width="1.5"/>

  <!-- Вертикальные линии -->
  <!-- Эллипсы -->
  <path d="M 13 6
	   C 19 7, 19 12, 13 13" stroke="#000" stroke-width="1.5" fill="none"/>
  <path d="M 13 13
	   C 19 14, 19 19, 13 20" stroke="#000" stroke-width="1.5" fill="none"/>
  <path d="M 13 20
	   C 19 21, 19 26, 13 27" stroke="#000" stroke-width="1.5" fill="none"/>
  <path d="M 13 27
	   C 19 28, 19 33, 13 34" stroke="#000" stroke-width="1.5" fill="none"/>

  <path d="M 27 6
	   C 21 7, 21 12, 27 13" stroke="#000" stroke-width="1.5" fill="none"/>
  <path d="M 27 13
	   C 21 14, 21 19, 27 20" stroke="#000" stroke-width="1.5" fill="none"/>
  <path d="M 27 20
	   C 21 21, 21 26, 27 27" stroke="#000" stroke-width="1.5" fill="none"/>
  <path d="M 27 27
	   C 21 28, 21 33, 27 34" stroke="#000" stroke-width="1.5" fill="none"/>

</svg>
